<?xml version="1.0" encoding="UTF-8" standalone="no"?>
<!DOCTYPE svg PUBLIC "-//W3C//DTD SVG 1.1//EN"
 "http://www.w3.org/Graphics/SVG/1.1/DTD/svg11.dtd">
<!-- Generated by graphviz version 14.0.5 (20251129.0259)
 -->
<!-- Pages: 1 -->
<svg width="972pt" height="2199pt"
 viewBox="0.00 0.00 972.00 2199.00" xmlns="http://www.w3.org/2000/svg" xmlns:xlink="http://www.w3.org/1999/xlink">
<g id="graph0" class="graph" transform="scale(1 1) rotate(0) translate(4 2194.75)">
<polygon fill="#ffffff" stroke="none" points="-4,4 -4,-2194.75 967.75,-2194.75 967.75,4 -4,4"/>
<!-- ZDROJ1&#45;8 -->
<g id="node1" class="node">
<title>ZDROJ1&#45;8</title>
<polygon fill="#ffffff" stroke="black" points="559.5,-366.5 52.5,-366.5 52.5,0 559.5,0 559.5,-366.5"/>
<polygon fill="none" stroke="black" points="52.5,-342.75 52.5,-366.5 559.5,-366.5 559.5,-342.75 52.5,-342.75"/>
<text xml:space="preserve" text-anchor="start" x="273.38" y="-349.2" font-family="arial" font-size="14.00">ZDROJ1&#45;8</text>
<polygon fill="none" stroke="black" points="52.5,-319 52.5,-342.75 332.25,-342.75 332.25,-319 52.5,-319"/>
<text xml:space="preserve" text-anchor="start" x="139.88" y="-325.45" font-family="arial" font-size="14.00">Phone Connector</text>
<polygon fill="none" stroke="black" points="332.25,-319 332.25,-342.75 559.5,-342.75 559.5,-319 332.25,-319"/>
<text xml:space="preserve" text-anchor="start" x="419.62" y="-325.45" font-family="arial" font-size="14.00">male 3.5</text>
<polygon fill="none" stroke="black" points="52.5,-295.25 52.5,-319 324,-319 324,-295.25 52.5,-295.25"/>
<text xml:space="preserve" text-anchor="start" x="177.75" y="-301.7" font-family="arial" font-size="14.00">Dot</text>
<polygon fill="none" stroke="black" points="324,-295.25 324,-319 559.5,-319 559.5,-295.25 324,-295.25"/>
<text xml:space="preserve" text-anchor="start" x="437.62" y="-301.7" font-family="arial" font-size="14.00">T</text>
<polygon fill="none" stroke="black" points="52.5,-271.5 52.5,-295.25 324,-295.25 324,-271.5 52.5,-271.5"/>
<text xml:space="preserve" text-anchor="start" x="172.5" y="-277.95" font-family="arial" font-size="14.00">Dash</text>
<polygon fill="none" stroke="black" points="324,-271.5 324,-295.25 559.5,-295.25 559.5,-271.5 324,-271.5"/>
<text xml:space="preserve" text-anchor="start" x="436.88" y="-277.95" font-family="arial" font-size="14.00">R</text>
<polygon fill="none" stroke="black" points="52.5,-247.75 52.5,-271.5 324,-271.5 324,-247.75 52.5,-247.75"/>
<text xml:space="preserve" text-anchor="start" x="165.38" y="-254.2" font-family="arial" font-size="14.00">Ground</text>
<polygon fill="none" stroke="black" points="324,-247.75 324,-271.5 559.5,-271.5 559.5,-247.75 324,-247.75"/>
<text xml:space="preserve" text-anchor="start" x="437.25" y="-254.2" font-family="arial" font-size="14.00">S</text>
<polyline fill="none" stroke="black" points="559.5,-23.75 559.5,-247.75 52.5,-247.75 52.5,-23.75"/>
<image xlink:href="fyzicka-schema/fyzicky-konektor-zdroj-strana.png" width="499px" height="216px" preserveAspectRatio="xMinYMin meet" x="56.5" y="-243.75"/>
<polyline fill="none" stroke="black" points="52.5,-23.75 52.5,0 559.5,0 559.5,-23.75"/>
<text xml:space="preserve" text-anchor="start" x="241.5" y="-6.45" font-family="arial" font-size="14.00">Tip, Ring, and Sleeve</text>
</g>
<!-- W1 -->
<g id="node6" class="node">
<title>W1</title>
<polygon fill="#ffffff" stroke="black" points="963.75,-423.12 756,-423.12 756,-213.38 963.75,-213.38 963.75,-423.12"/>
<polygon fill="none" stroke="black" points="756,-399.38 756,-423.12 963.75,-423.12 963.75,-399.38 756,-399.38"/>
<text xml:space="preserve" text-anchor="start" x="849.38" y="-405.82" font-family="arial" font-size="14.00">W1</text>
<polygon fill="none" stroke="black" points="756,-375.62 756,-399.38 781.62,-399.38 781.62,-375.62 756,-375.62"/>
<text xml:space="preserve" text-anchor="start" x="761.69" y="-382.07" font-family="arial" font-size="14.00">3x</text>
<polygon fill="none" stroke="black" points="781.62,-375.62 781.62,-399.38 844.75,-399.38 844.75,-375.62 781.62,-375.62"/>
<text xml:space="preserve" text-anchor="start" x="787.31" y="-382.07" font-family="arial" font-size="14.00">24 AWG</text>
<polygon fill="none" stroke="black" points="844.75,-375.62 844.75,-399.38 877.12,-399.38 877.12,-375.62 844.75,-375.62"/>
<text xml:space="preserve" text-anchor="start" x="850.44" y="-382.07" font-family="arial" font-size="14.00">+ S</text>
<polygon fill="none" stroke="black" points="877.12,-375.62 877.12,-399.38 923,-399.38 923,-375.62 877.12,-375.62"/>
<text xml:space="preserve" text-anchor="start" x="882.81" y="-382.07" font-family="arial" font-size="14.00">0.2 m</text>
<polygon fill="none" stroke="black" points="923,-375.62 923,-399.38 952.38,-399.38 952.38,-375.62 923,-375.62"/>
<text xml:space="preserve" text-anchor="start" x="928.69" y="-382.07" font-family="arial" font-size="14.00">BK</text>
<polygon fill="#000000" stroke="none" points="952.38,-375.62 952.38,-399.38 963.75,-399.38 963.75,-375.62 952.38,-375.62"/>
<polygon fill="none" stroke="black" points="952.38,-375.62 952.38,-399.38 963.75,-399.38 963.75,-375.62 952.38,-375.62"/>
<text xml:space="preserve" text-anchor="start" x="819.88" y="-360.32" font-family="arial" font-size="14.00"> </text>
<text xml:space="preserve" text-anchor="start" x="758" y="-340.57" font-family="arial" font-size="14.00">ZDROJ1&#45;8:S:Ground</text>
<text xml:space="preserve" text-anchor="start" x="889.5" y="-340.57" font-family="arial" font-size="14.00"> &#160;&#160;&#160;&#160;1:WH &#160;&#160;&#160;</text>
<polygon fill="#000000" stroke="none" points="756,-334.12 756,-336.12 963.75,-336.12 963.75,-334.12 756,-334.12"/>
<polygon fill="#ffffff" stroke="none" points="756,-332.12 756,-334.12 963.75,-334.12 963.75,-332.12 756,-332.12"/>
<polygon fill="#000000" stroke="none" points="756,-330.12 756,-332.12 963.75,-332.12 963.75,-330.12 756,-330.12"/>
<text xml:space="preserve" text-anchor="start" x="764.75" y="-314.82" font-family="arial" font-size="14.00">ZDROJ1&#45;8:R:Dash</text>
<text xml:space="preserve" text-anchor="start" x="891.75" y="-314.82" font-family="arial" font-size="14.00"> &#160;&#160;&#160;&#160;2:BN &#160;&#160;&#160;</text>
<polygon fill="#000000" stroke="none" points="756,-308.38 756,-310.38 963.75,-310.38 963.75,-308.38 756,-308.38"/>
<polygon fill="#895956" stroke="none" points="756,-306.38 756,-308.38 963.75,-308.38 963.75,-306.38 756,-306.38"/>
<polygon fill="#000000" stroke="none" points="756,-304.38 756,-306.38 963.75,-306.38 963.75,-304.38 756,-304.38"/>
<text xml:space="preserve" text-anchor="start" x="771.5" y="-289.07" font-family="arial" font-size="14.00">ZDROJ1&#45;8:T:Dot</text>
<text xml:space="preserve" text-anchor="start" x="890.62" y="-289.07" font-family="arial" font-size="14.00"> &#160;&#160;&#160;&#160;3:GN &#160;&#160;&#160;</text>
<polygon fill="#000000" stroke="none" points="756,-282.62 756,-284.62 963.75,-284.62 963.75,-282.62 756,-282.62"/>
<polygon fill="#00ff00" stroke="none" points="756,-280.62 756,-282.62 963.75,-282.62 963.75,-280.62 756,-280.62"/>
<polygon fill="#000000" stroke="none" points="756,-278.62 756,-280.62 963.75,-280.62 963.75,-278.62 756,-278.62"/>
<text xml:space="preserve" text-anchor="start" x="819.88" y="-263.32" font-family="arial" font-size="14.00"> </text>
<text xml:space="preserve" text-anchor="start" x="758" y="-243.57" font-family="arial" font-size="14.00">ZDROJ1&#45;8:S:Ground</text>
<text xml:space="preserve" text-anchor="start" x="904.88" y="-243.57" font-family="arial" font-size="14.00">Shield</text>
<polygon fill="#aaaaaa" stroke="none" points="756,-233.12 756,-239.12 963.75,-239.12 963.75,-233.12 756,-233.12"/>
<polyline fill="none" stroke="black" stroke-width="2" points="757,-234.12 962.75,-234.12"/>
<polyline fill="none" stroke="black" stroke-width="2" points="962.75,-238.12 757,-238.12"/>
<text xml:space="preserve" text-anchor="start" x="819.88" y="-217.82" font-family="arial" font-size="14.00"> </text>
</g>
<!-- ZDROJ1&#45;8&#45;&#45;W1 -->
<g id="edge1" class="edge">
<title>ZDROJ1&#45;8:e&#45;&#45;W1:w</title>
<path fill="none" stroke="#000000" stroke-width="2" d="M560.5,-257.63C655.31,-259.36 665.16,-332.86 756,-331.13"/>
<path fill="none" stroke="#ffffff" stroke-width="2" d="M560.5,-259.62C653.33,-259.62 663.17,-333.12 756,-333.12"/>
<path fill="none" stroke="#000000" stroke-width="2" d="M560.5,-261.62C651.34,-259.89 661.19,-333.39 756,-335.12"/>
</g>
<!-- ZDROJ1&#45;8&#45;&#45;W1 -->
<g id="edge2" class="edge">
<title>ZDROJ1&#45;8:e&#45;&#45;W1:w</title>
<path fill="none" stroke="#000000" stroke-width="2" d="M560.5,-281.38C649.56,-282.08 669.98,-306.08 756,-305.38"/>
<path fill="none" stroke="#895956" stroke-width="2" d="M560.5,-283.38C648.04,-283.38 668.46,-307.38 756,-307.38"/>
<path fill="none" stroke="#000000" stroke-width="2" d="M560.5,-285.37C646.52,-284.67 666.94,-308.67 756,-309.37"/>
</g>
<!-- ZDROJ1&#45;8&#45;&#45;W1 -->
<g id="edge3" class="edge">
<title>ZDROJ1&#45;8:e&#45;&#45;W1:w</title>
<path fill="none" stroke="#000000" stroke-width="2" d="M560.5,-305.13C646.56,-305.88 666.81,-280.38 756,-279.63"/>
<path fill="none" stroke="#00ff00" stroke-width="2" d="M560.5,-307.12C648.12,-307.12 668.38,-281.62 756,-281.62"/>
<path fill="none" stroke="#000000" stroke-width="2" d="M560.5,-309.12C649.69,-308.37 669.94,-282.87 756,-283.62"/>
</g>
<!-- ZDROJ1&#45;8&#45;&#45;W1 -->
<g id="edge4" class="edge">
<title>ZDROJ1&#45;8:e&#45;&#45;W1:w</title>
<path fill="none" stroke="#000000" stroke-width="2" d="M560.5,-257.63C646.51,-258.31 666.98,-234.81 756,-234.13"/>
<path fill="none" stroke="#aaaaaa" stroke-width="2" d="M560.5,-259.62C648.01,-259.62 668.49,-236.13 756,-236.12"/>
<path fill="none" stroke="#000000" stroke-width="2" d="M560.5,-261.62C649.52,-260.94 669.99,-237.44 756,-238.12"/>
</g>
<!-- PC1&#45;6 -->
<g id="node2" class="node">
<title>PC1&#45;6</title>
<polygon fill="#ffffff" stroke="black" points="612,-810.38 0,-810.38 0,-390.12 612,-390.12 612,-810.38"/>
<polygon fill="none" stroke="black" points="0,-786.62 0,-810.38 612,-810.38 612,-786.62 0,-786.62"/>
<text xml:space="preserve" text-anchor="start" x="286.88" y="-793.08" font-family="arial" font-size="14.00">PC1&#45;6</text>
<polygon fill="none" stroke="black" points="0,-762.88 0,-786.62 242.5,-786.62 242.5,-762.88 0,-762.88"/>
<text xml:space="preserve" text-anchor="start" x="74.38" y="-769.33" font-family="arial" font-size="14.00">USB Connector</text>
<polygon fill="none" stroke="black" points="242.5,-762.88 242.5,-786.62 433.25,-786.62 433.25,-762.88 242.5,-762.88"/>
<text xml:space="preserve" text-anchor="start" x="316.88" y="-769.33" font-family="arial" font-size="14.00">male A</text>
<polygon fill="none" stroke="black" points="433.25,-762.88 433.25,-786.62 612,-786.62 612,-762.88 433.25,-762.88"/>
<text xml:space="preserve" text-anchor="start" x="507.62" y="-769.33" font-family="arial" font-size="14.00">4&#45;pin</text>
<polygon fill="none" stroke="black" points="0,-739.12 0,-762.88 294.38,-762.88 294.38,-739.12 0,-739.12"/>
<text xml:space="preserve" text-anchor="start" x="143.44" y="-745.58" font-family="arial" font-size="14.00">1</text>
<polygon fill="none" stroke="black" points="294.38,-739.12 294.38,-762.88 612,-762.88 612,-739.12 294.38,-739.12"/>
<text xml:space="preserve" text-anchor="start" x="438.94" y="-745.58" font-family="arial" font-size="14.00">VCC</text>
<polygon fill="none" stroke="black" points="0,-715.38 0,-739.12 294.38,-739.12 294.38,-715.38 0,-715.38"/>
<text xml:space="preserve" text-anchor="start" x="143.44" y="-721.83" font-family="arial" font-size="14.00">2</text>
<polygon fill="none" stroke="black" points="294.38,-715.38 294.38,-739.12 612,-739.12 612,-715.38 294.38,-715.38"/>
<text xml:space="preserve" text-anchor="start" x="446.06" y="-721.83" font-family="arial" font-size="14.00">D&#45;</text>
<polygon fill="none" stroke="black" points="0,-691.62 0,-715.38 294.38,-715.38 294.38,-691.62 0,-691.62"/>
<text xml:space="preserve" text-anchor="start" x="143.44" y="-698.08" font-family="arial" font-size="14.00">3</text>
<polygon fill="none" stroke="black" points="294.38,-691.62 294.38,-715.38 612,-715.38 612,-691.62 294.38,-691.62"/>
<text xml:space="preserve" text-anchor="start" x="444.19" y="-698.08" font-family="arial" font-size="14.00">D+</text>
<polygon fill="none" stroke="black" points="0,-667.88 0,-691.62 294.38,-691.62 294.38,-667.88 0,-667.88"/>
<text xml:space="preserve" text-anchor="start" x="143.44" y="-674.33" font-family="arial" font-size="14.00">4</text>
<polygon fill="none" stroke="black" points="294.38,-667.88 294.38,-691.62 612,-691.62 612,-667.88 294.38,-667.88"/>
<text xml:space="preserve" text-anchor="start" x="437.81" y="-674.33" font-family="arial" font-size="14.00">GND</text>
<polyline fill="none" stroke="black" points="612,-413.88 612,-667.88 0,-667.88 0,-413.88"/>
<image xlink:href="fyzicka-schema/fyzicky-konektor-pc-strana.png" width="604px" height="246px" preserveAspectRatio="xMinYMin meet" x="4" y="-663.875"/>
<polyline fill="none" stroke="black" points="0,-413.88 0,-390.12 612,-390.12 612,-413.88"/>
<text xml:space="preserve" text-anchor="start" x="236.25" y="-396.57" font-family="arial" font-size="14.00">USB Type&#45;A Connector</text>
</g>
<!-- PC1&#45;2 -->
<g id="node3" class="node">
<title>PC1&#45;2</title>
<polygon fill="#ffffff" stroke="black" points="612,-1230.5 0,-1230.5 0,-834 612,-834 612,-1230.5"/>
<polygon fill="none" stroke="black" points="0,-1206.75 0,-1230.5 612,-1230.5 612,-1206.75 0,-1206.75"/>
<text xml:space="preserve" text-anchor="start" x="286.88" y="-1213.2" font-family="arial" font-size="14.00">PC1&#45;2</text>
<polygon fill="none" stroke="black" points="0,-1183 0,-1206.75 320.25,-1206.75 320.25,-1183 0,-1183"/>
<text xml:space="preserve" text-anchor="start" x="114" y="-1189.45" font-family="arial" font-size="14.00">XLR Connector</text>
<polygon fill="none" stroke="black" points="320.25,-1183 320.25,-1206.75 612,-1206.75 612,-1183 320.25,-1183"/>
<text xml:space="preserve" text-anchor="start" x="434.25" y="-1189.45" font-family="arial" font-size="14.00">male 3&#45;pin</text>
<polygon fill="none" stroke="black" points="0,-1159.25 0,-1183 294.38,-1183 294.38,-1159.25 0,-1159.25"/>
<text xml:space="preserve" text-anchor="start" x="143.44" y="-1165.7" font-family="arial" font-size="14.00">1</text>
<polygon fill="none" stroke="black" points="294.38,-1159.25 294.38,-1183 612,-1183 612,-1159.25 294.38,-1159.25"/>
<text xml:space="preserve" text-anchor="start" x="437.81" y="-1165.7" font-family="arial" font-size="14.00">GND</text>
<polygon fill="none" stroke="black" points="0,-1135.5 0,-1159.25 294.38,-1159.25 294.38,-1135.5 0,-1135.5"/>
<text xml:space="preserve" text-anchor="start" x="143.44" y="-1141.95" font-family="arial" font-size="14.00">2</text>
<polygon fill="none" stroke="black" points="294.38,-1135.5 294.38,-1159.25 612,-1159.25 612,-1135.5 294.38,-1135.5"/>
<text xml:space="preserve" text-anchor="start" x="442.69" y="-1141.95" font-family="arial" font-size="14.00">Hot</text>
<polygon fill="none" stroke="black" points="0,-1111.75 0,-1135.5 294.38,-1135.5 294.38,-1111.75 0,-1111.75"/>
<text xml:space="preserve" text-anchor="start" x="143.44" y="-1118.2" font-family="arial" font-size="14.00">3</text>
<polygon fill="none" stroke="black" points="294.38,-1111.75 294.38,-1135.5 612,-1135.5 612,-1111.75 294.38,-1111.75"/>
<text xml:space="preserve" text-anchor="start" x="439.31" y="-1118.2" font-family="arial" font-size="14.00">Cold</text>
<polyline fill="none" stroke="black" points="612,-857.75 612,-1111.75 0,-1111.75 0,-857.75"/>
<image xlink:href="fyzicka-schema/fyzicky-konektor-pc-strana.png" width="604px" height="246px" preserveAspectRatio="xMinYMin meet" x="4" y="-1107.75"/>
<polyline fill="none" stroke="black" points="0,-857.75 0,-834 612,-834 612,-857.75"/>
<text xml:space="preserve" text-anchor="start" x="226.12" y="-840.45" font-family="arial" font-size="14.00">XLR 3&#45;pin Male Connector</text>
</g>
<!-- PC2&#45;6 -->
<g id="node4" class="node">
<title>PC2&#45;6</title>
<polygon fill="#ffffff" stroke="black" points="612,-1627.62 0,-1627.62 0,-1254.88 612,-1254.88 612,-1627.62"/>
<polygon fill="none" stroke="black" points="0,-1603.88 0,-1627.62 612,-1627.62 612,-1603.88 0,-1603.88"/>
<text xml:space="preserve" text-anchor="start" x="286.88" y="-1610.33" font-family="arial" font-size="14.00">PC2&#45;6</text>
<polygon fill="none" stroke="black" points="0,-1580.12 0,-1603.88 337.88,-1603.88 337.88,-1580.12 0,-1580.12"/>
<text xml:space="preserve" text-anchor="start" x="122.06" y="-1586.58" font-family="arial" font-size="14.00">RCA Connector</text>
<polygon fill="none" stroke="black" points="337.88,-1580.12 337.88,-1603.88 612,-1603.88 612,-1580.12 337.88,-1580.12"/>
<text xml:space="preserve" text-anchor="start" x="459.94" y="-1586.58" font-family="arial" font-size="14.00">male</text>
<polygon fill="none" stroke="black" points="0,-1556.38 0,-1580.12 287.62,-1580.12 287.62,-1556.38 0,-1556.38"/>
<text xml:space="preserve" text-anchor="start" x="139.31" y="-1562.83" font-family="arial" font-size="14.00">S</text>
<polygon fill="none" stroke="black" points="287.62,-1556.38 287.62,-1580.12 612,-1580.12 612,-1556.38 287.62,-1556.38"/>
<text xml:space="preserve" text-anchor="start" x="426.94" y="-1562.83" font-family="arial" font-size="14.00">Ground</text>
<polygon fill="none" stroke="black" points="0,-1532.62 0,-1556.38 287.62,-1556.38 287.62,-1532.62 0,-1532.62"/>
<text xml:space="preserve" text-anchor="start" x="139.69" y="-1539.08" font-family="arial" font-size="14.00">T</text>
<polygon fill="none" stroke="black" points="287.62,-1532.62 287.62,-1556.38 612,-1556.38 612,-1532.62 287.62,-1532.62"/>
<text xml:space="preserve" text-anchor="start" x="431.06" y="-1539.08" font-family="arial" font-size="14.00">Signal</text>
<polyline fill="none" stroke="black" points="612,-1278.62 612,-1532.62 0,-1532.62 0,-1278.62"/>
<image xlink:href="fyzicka-schema/fyzicky-konektor-pc-strana.png" width="604px" height="246px" preserveAspectRatio="xMinYMin meet" x="4" y="-1528.62"/>
<polyline fill="none" stroke="black" points="0,-1278.62 0,-1254.88 612,-1254.88 612,-1278.62"/>
<text xml:space="preserve" text-anchor="start" x="243.75" y="-1261.33" font-family="arial" font-size="14.00">RCA Plug Connector</text>
</g>
<!-- PC2&#45;2 -->
<g id="node5" class="node">
<title>PC2&#45;2</title>
<polygon fill="#ffffff" stroke="black" points="612,-2190.75 0,-2190.75 0,-1651.75 612,-1651.75 612,-2190.75"/>
<polygon fill="none" stroke="black" points="0,-2167 0,-2190.75 612,-2190.75 612,-2167 0,-2167"/>
<text xml:space="preserve" text-anchor="start" x="286.88" y="-2173.45" font-family="arial" font-size="14.00">PC2&#45;2</text>
<polygon fill="none" stroke="black" points="0,-2143.25 0,-2167 245.5,-2167 245.5,-2143.25 0,-2143.25"/>
<text xml:space="preserve" text-anchor="start" x="76.62" y="-2149.7" font-family="arial" font-size="14.00">DB9 Connector</text>
<polygon fill="none" stroke="black" points="245.5,-2143.25 245.5,-2167 428.75,-2167 428.75,-2143.25 245.5,-2143.25"/>
<text xml:space="preserve" text-anchor="start" x="322.12" y="-2149.7" font-family="arial" font-size="14.00">male</text>
<polygon fill="none" stroke="black" points="428.75,-2143.25 428.75,-2167 612,-2167 612,-2143.25 428.75,-2143.25"/>
<text xml:space="preserve" text-anchor="start" x="505.38" y="-2149.7" font-family="arial" font-size="14.00">9&#45;pin</text>
<polygon fill="none" stroke="black" points="0,-2119.5 0,-2143.25 294.38,-2143.25 294.38,-2119.5 0,-2119.5"/>
<text xml:space="preserve" text-anchor="start" x="143.44" y="-2125.95" font-family="arial" font-size="14.00">1</text>
<polygon fill="none" stroke="black" points="294.38,-2119.5 294.38,-2143.25 612,-2143.25 612,-2119.5 294.38,-2119.5"/>
<text xml:space="preserve" text-anchor="start" x="438.56" y="-2125.95" font-family="arial" font-size="14.00">DCD</text>
<polygon fill="none" stroke="black" points="0,-2095.75 0,-2119.5 294.38,-2119.5 294.38,-2095.75 0,-2095.75"/>
<text xml:space="preserve" text-anchor="start" x="143.44" y="-2102.2" font-family="arial" font-size="14.00">2</text>
<polygon fill="none" stroke="black" points="294.38,-2095.75 294.38,-2119.5 612,-2119.5 612,-2095.75 294.38,-2095.75"/>
<text xml:space="preserve" text-anchor="start" x="443.81" y="-2102.2" font-family="arial" font-size="14.00">RX</text>
<polygon fill="none" stroke="black" points="0,-2072 0,-2095.75 294.38,-2095.75 294.38,-2072 0,-2072"/>
<text xml:space="preserve" text-anchor="start" x="143.44" y="-2078.45" font-family="arial" font-size="14.00">3</text>
<polygon fill="none" stroke="black" points="294.38,-2072 294.38,-2095.75 612,-2095.75 612,-2072 294.38,-2072"/>
<text xml:space="preserve" text-anchor="start" x="444.56" y="-2078.45" font-family="arial" font-size="14.00">TX</text>
<polygon fill="none" stroke="black" points="0,-2048.25 0,-2072 294.38,-2072 294.38,-2048.25 0,-2048.25"/>
<text xml:space="preserve" text-anchor="start" x="143.44" y="-2054.7" font-family="arial" font-size="14.00">4</text>
<polygon fill="none" stroke="black" points="294.38,-2048.25 294.38,-2072 612,-2072 612,-2048.25 294.38,-2048.25"/>
<text xml:space="preserve" text-anchor="start" x="439.31" y="-2054.7" font-family="arial" font-size="14.00">DTR</text>
<polygon fill="none" stroke="black" points="0,-2024.5 0,-2048.25 294.38,-2048.25 294.38,-2024.5 0,-2024.5"/>
<text xml:space="preserve" text-anchor="start" x="143.44" y="-2030.95" font-family="arial" font-size="14.00">5</text>
<polygon fill="none" stroke="black" points="294.38,-2024.5 294.38,-2048.25 612,-2048.25 612,-2024.5 294.38,-2024.5"/>
<text xml:space="preserve" text-anchor="start" x="437.81" y="-2030.95" font-family="arial" font-size="14.00">GND</text>
<polygon fill="none" stroke="black" points="0,-2000.75 0,-2024.5 294.38,-2024.5 294.38,-2000.75 0,-2000.75"/>
<text xml:space="preserve" text-anchor="start" x="143.44" y="-2007.2" font-family="arial" font-size="14.00">6</text>
<polygon fill="none" stroke="black" points="294.38,-2000.75 294.38,-2024.5 612,-2024.5 612,-2000.75 294.38,-2000.75"/>
<text xml:space="preserve" text-anchor="start" x="438.94" y="-2007.2" font-family="arial" font-size="14.00">DSR</text>
<polygon fill="none" stroke="black" points="0,-1977 0,-2000.75 294.38,-2000.75 294.38,-1977 0,-1977"/>
<text xml:space="preserve" text-anchor="start" x="143.44" y="-1983.45" font-family="arial" font-size="14.00">7</text>
<polygon fill="none" stroke="black" points="294.38,-1977 294.38,-2000.75 612,-2000.75 612,-1977 294.38,-1977"/>
<text xml:space="preserve" text-anchor="start" x="439.69" y="-1983.45" font-family="arial" font-size="14.00">RTS</text>
<polygon fill="none" stroke="black" points="0,-1953.25 0,-1977 294.38,-1977 294.38,-1953.25 0,-1953.25"/>
<text xml:space="preserve" text-anchor="start" x="143.44" y="-1959.7" font-family="arial" font-size="14.00">8</text>
<polygon fill="none" stroke="black" points="294.38,-1953.25 294.38,-1977 612,-1977 612,-1953.25 294.38,-1953.25"/>
<text xml:space="preserve" text-anchor="start" x="439.69" y="-1959.7" font-family="arial" font-size="14.00">CTS</text>
<polygon fill="none" stroke="black" points="0,-1929.5 0,-1953.25 294.38,-1953.25 294.38,-1929.5 0,-1929.5"/>
<text xml:space="preserve" text-anchor="start" x="143.44" y="-1935.95" font-family="arial" font-size="14.00">9</text>
<polygon fill="none" stroke="black" points="294.38,-1929.5 294.38,-1953.25 612,-1953.25 612,-1929.5 294.38,-1929.5"/>
<text xml:space="preserve" text-anchor="start" x="446.44" y="-1935.95" font-family="arial" font-size="14.00">RI</text>
<polyline fill="none" stroke="black" points="612,-1675.5 612,-1929.5 0,-1929.5 0,-1675.5"/>
<image xlink:href="fyzicka-schema/fyzicky-konektor-pc-strana.png" width="604px" height="246px" preserveAspectRatio="xMinYMin meet" x="4" y="-1925.5"/>
<polyline fill="none" stroke="black" points="0,-1675.5 0,-1651.75 612,-1651.75 612,-1675.5"/>
<text xml:space="preserve" text-anchor="start" x="240.75" y="-1658.2" font-family="arial" font-size="14.00">DB9 Serial Connector</text>
</g>
</g>
</svg>
