<?xml version="1.0" encoding="UTF-8" standalone="no"?>
<!-- Created with Inkscape (http://www.inkscape.org/) -->

<svg
   width="12.877896mm"
   height="13.59959mm"
   viewBox="0 0 12.877896 13.59959"
   version="1.1"
   id="svg1"
   inkscape:version="1.4.2 (ebf0e940d0, 2025-05-08)"
   sodipodi:docname="molex-template.svg"
   xmlns:inkscape="http://www.inkscape.org/namespaces/inkscape"
   xmlns:sodipodi="http://sodipodi.sourceforge.net/DTD/sodipodi-0.dtd"
   xmlns="http://www.w3.org/2000/svg"
   xmlns:svg="http://www.w3.org/2000/svg">
  <sodipodi:namedview
     id="namedview1"
     pagecolor="#ffffff"
     bordercolor="#111111"
     borderopacity="1"
     inkscape:showpageshadow="0"
     inkscape:pageopacity="0"
     inkscape:pagecheckerboard="1"
     inkscape:deskcolor="#d1d1d1"
     inkscape:document-units="mm"
     inkscape:zoom="0.55"
     inkscape:cx="-283.63636"
     inkscape:cy="37.272727"
     inkscape:window-width="1920"
     inkscape:window-height="1008"
     inkscape:window-x="0"
     inkscape:window-y="0"
     inkscape:window-maximized="1"
     inkscape:current-layer="layer1" />
  <defs
     id="defs1" />
  <g
     inkscape:label="Layer 1"
     inkscape:groupmode="layer"
     id="layer1"
     transform="translate(107.65602,-432.3622)">
    <path
       d="m -101.50129,432.37232 -6.07932,0.0428 -0.0377,5.19959 -0.0377,5.19958 1.46574,1.57375 1.46543,1.57375 h 3.43344 3.433147 l 1.54022,-1.64311 1.53992,-1.64281 v -5.0893 -5.08927 l -0.32177,-0.0837 c -0.17701,-0.046 -3.05776,-0.0647 -6.401397,-0.0413 z m 4.125507,0.83142 h 3.1e-4 l 1.73898,0.10015 -0.004,4.53021 -0.004,4.5305 -1.28244,1.41589 -1.28275,1.4159 h -3.043347 -3.04337 l -1.24875,-1.34235 -1.24844,-1.34265 v -4.60464 -4.60465 l 1.18013,-0.0981 c 1.53164,-0.12759 6.021287,-0.12785 8.238047,-3e-4 z"
       style="fill:#000000;stroke-width:0.588254"
       id="path1-3"
       inkscape:export-filename="path1-3.svg"
       inkscape:export-xdpi="96"
       inkscape:export-ydpi="96" />
  </g>
</svg>
