<?xml version="1.0" encoding="UTF-8" standalone="no"?>
<!-- Created with Inkscape (http://www.inkscape.org/) -->

<svg
   width="210mm"
   height="297mm"
   viewBox="0 0 210 297"
   version="1.1"
   id="svg1"
   xml:space="preserve"
   inkscape:version="1.3.2 (091e20e, 2023-11-25, custom)"
   sodipodi:docname="konektor.svg"
   xmlns:inkscape="http://www.inkscape.org/namespaces/inkscape"
   xmlns:sodipodi="http://sodipodi.sourceforge.net/DTD/sodipodi-0.dtd"
   xmlns="http://www.w3.org/2000/svg"
   xmlns:svg="http://www.w3.org/2000/svg"><sodipodi:namedview
     id="namedview1"
     pagecolor="#ffffff"
     bordercolor="#000000"
     borderopacity="0.25"
     inkscape:showpageshadow="2"
     inkscape:pageopacity="0.0"
     inkscape:pagecheckerboard="true"
     inkscape:deskcolor="#d1d1d1"
     inkscape:document-units="mm"
     inkscape:zoom="2.3579016"
     inkscape:cx="396.11492"
     inkscape:cy="312.77811"
     inkscape:window-width="1920"
     inkscape:window-height="1017"
     inkscape:window-x="-8"
     inkscape:window-y="-8"
     inkscape:window-maximized="1"
     inkscape:current-layer="layer1" /><defs
     id="defs1" /><g
     inkscape:label="Layer 1"
     inkscape:groupmode="layer"
     id="layer1"><path
       style="fill:#000000"
       d="m 21.921877,213.43355 v -34.925 H 32.205218 42.48856 v -3.175 -3.175 h 12.42808 12.42808 l 0.06738,3.10885 c 0.04874,2.24876 0.15008,3.11801 0.366311,3.14193 0.164414,0.0182 5.303095,0.048 11.419292,0.0661 l 11.120358,0.0331 v 34.925 34.925 h -34.19809 -34.19809 z m 67.200443,0 v -33.60208 l -15.4848,-0.034 c -8.51664,-0.0187 -16.66858,-0.0403 -18.115422,-0.0481 -1.446842,-0.008 -9.329741,0.008 -17.517553,0.034 l -14.886931,0.048 v 33.60208 33.60208 H 56.119967 89.12232 Z m -60.743461,16.27187 v -11.77396 h 10.761636 10.761637 v 11.77396 11.77396 H 39.140495 28.378859 Z m 16.441389,10.19658 3.886147,-0.0101 v -10.18646 -10.18646 h -9.5659 -9.565899 v 10.34335 10.34335 l 5.679753,-0.14677 c 3.123864,-0.0807 7.428519,-0.15132 9.565899,-0.15689 z m 19.610094,-1.21198 -2.570836,-2.78611 v -8.82562 c 0,-8.05978 0.03525,-8.84059 0.406244,-8.9981 0.223434,-0.0949 5.227287,-0.13736 11.119674,-0.0944 l 10.713429,0.078 6.85e-4,8.99131 6.85e-4,8.99132 -2.446989,2.71649 -2.446989,2.7165 -6.102534,-0.002 -6.102534,-0.002 z m 9.304726,1.23598 5.059859,-0.0341 2.054779,-2.21772 2.054779,-2.21772 v -7.96874 -7.96874 h -9.92462 -9.924621 v 7.86639 7.86638 l 2.158828,2.39841 c 1.743816,1.93735 2.284005,2.38992 2.809983,2.3542 0.358135,-0.0243 2.928091,-0.0596 5.711013,-0.0783 z M 30.83012,206.05154 28.378859,203.22169 v -8.78469 -8.7847 h 10.761636 10.761637 v 8.95518 8.95518 l -2.451261,2.51322 -2.451262,2.51323 -5.859114,0.14614 -5.859113,0.14615 z m 15.754742,-1.00025 2.121533,-2.29684 v -7.89262 -7.89262 l -9.579948,0.0692 -9.579947,0.0691 0.01256,7.80521 0.01257,7.8052 2.094023,2.27213 2.094023,2.27213 5.351826,0.043 5.351827,0.043 z m 15.274644,-7.88962 V 185.6523 h 11.120359 11.120358 v 11.50937 11.50938 H 72.979865 61.859506 Z m 21.044979,0 v -10.18645 h -9.92462 -9.924621 v 10.18645 10.18646 h 9.924621 9.92462 z m -16.740524,-21.23542 2e-4,-2.45002 -11.180145,0.0688 -11.180145,0.0688 -0.07054,2.09328 c -0.0388,1.1513 -0.01166,2.26305 0.06032,2.47056 0.11132,0.32095 1.79101,0.36394 11.250486,0.28797 l 11.11963,-0.0893 z m 119.334799,37.36294 v -35.06935 l 4.06581,0.0782 4.06581,0.0782 -3e-4,-3.10886 -3.1e-4,-3.10885 h 12.19652 12.19652 v 3.04271 3.04271 l 4.48402,0.0281 c 2.46621,0.0155 4.64544,0.0546 4.84274,0.087 0.19729,0.0324 2.91461,0.0793 6.03847,0.10416 l 5.67975,0.0453 v 34.925 34.925 h -26.78452 -26.78451 z m 52.37329,0.15039 v -33.59604 l -9.38653,-0.0749 c -5.1626,-0.0412 -16.67755,-0.10502 -25.58878,-0.14186 l -16.20225,-0.067 v 33.73791 33.73791 h 25.58878 25.58878 z m -46.15551,16.33199 5e-5,-11.57552 6.63634,-0.009 c 3.64999,-0.005 7.60489,-0.0136 8.78867,-0.0192 1.18378,-0.006 2.25995,-0.002 2.39148,0.009 0.21025,0.0168 0.23239,22.73691 0.0224,22.96925 -0.0378,0.0418 -4.06699,0.10414 -8.95382,0.13856 l -8.88516,0.0626 z m 16.74037,-0.0661 v -10.18646 h -7.77229 -7.77229 v 10.18646 10.18646 h 7.77229 7.77229 z m 9.92462,9.41952 c -1.18378,-1.22218 -2.39446,-2.50874 -2.6904,-2.85903 -0.53548,-0.63378 -0.53809,-0.67913 -0.53809,-9.35337 v -8.71649 h 8.96803 8.96804 v 8.83864 8.83865 l -2.68776,2.82939 -2.68776,2.82938 -3.58986,-0.0925 -3.58987,-0.0925 z m 11.29523,-1.67523 2.21661,-2.44217 v -7.74429 -7.74429 h -7.7723 -7.77229 v 7.7341 7.73409 l 2.20739,2.45236 2.20739,2.45237 h 3.3483 3.34829 z m -35.50891,-31.30331 -2.45126,-2.68652 v -8.90379 -8.90379 h 8.96171 8.96171 l 0.0661,8.73563 0.0661,8.73563 -2.63437,2.90604 -2.63436,2.90603 -3.94219,-0.0514 -3.9422,-0.0514 z m 12.22271,-1.18577 2.06635,-2.3875 v -7.79896 -7.79895 h -7.77229 -7.77229 v 7.86612 7.86612 l 2.08755,2.32033 2.08756,2.32034 h 3.61838 3.61839 z m 8.76239,-7.45261 c 7e-5,-8.74562 0.0676,-11.34364 0.29903,-11.50938 0.16441,-0.11773 4.20003,-0.2518 8.96803,-0.29794 l 8.6691,-0.0839 v 11.52087 11.52087 l -8.96813,0.0724 -8.96812,0.0724 z m 16.74042,-0.16996 c 0,-5.50554 -0.0447,-10.05968 -0.0994,-10.12031 -0.0547,-0.0606 -3.5522,-0.0772 -7.77229,-0.0369 l -7.67289,0.0733 v 10.04699 10.04698 h 7.77229 7.7723 z m -15.30544,-21.47804 v -2.38395 l -10.7718,0.0688 -10.77179,0.0688 -0.0496,2.31511 -0.0496,2.31511 10.82143,-1e-5 h 10.82142 z M 92.658023,232.99643 c -0.569578,-0.63016 -0.668139,-0.87986 -0.443854,-1.12448 0.223438,-0.2437 0.396797,-0.15074 0.770502,0.41316 0.577035,0.87071 1.387418,0.94337 2.011552,0.18036 0.408687,-0.49963 0.41642,-0.609 0.08886,-1.25678 -0.19733,-0.39023 -0.597322,-0.74756 -0.888871,-0.79407 -0.671786,-0.10714 -0.67618,-0.37784 -0.01157,-0.7126 0.777406,-0.39158 1.07286,-1.05667 0.693853,-1.56192 -0.437648,-0.58342 -1.388535,-0.52346 -1.746169,0.11011 -0.345369,0.61185 -0.90109,0.70528 -0.90109,0.1515 0,-0.52753 1.151868,-1.47441 1.793606,-1.47441 1.305682,0 2.300971,1.85059 1.426919,2.65315 -0.325966,0.2993 -0.312686,0.40028 0.119573,0.90934 0.829952,0.97741 0.548765,2.31195 -0.633967,3.00887 -0.850645,0.50125 -1.502078,0.35771 -2.279345,-0.50223 z m 147.846227,0.6116 c 0.003,-0.37474 0.83927,-1.52303 2.09211,-2.87262 1.27297,-1.37129 1.53592,-2.1619 0.91012,-2.7365 -0.53753,-0.49356 -1.65395,-0.23267 -1.92456,0.44974 -0.25939,0.65412 -0.8401,0.81155 -0.8401,0.22775 0,-0.68107 0.83108,-1.49956 1.67411,-1.64876 1.12659,-0.19937 2.15225,0.65549 2.15225,1.79384 0,0.61686 -0.33352,1.18173 -1.47279,2.49434 l -1.47279,1.69689 h 1.47279 c 1.14972,0 1.47279,0.0871 1.47279,0.39688 0,0.32165 -0.38529,0.39687 -2.03275,0.39687 -1.11801,0 -2.03204,-0.0893 -2.03118,-0.19843 z M 92.777038,200.40282 c -1.004753,-1.21042 -0.962429,-4.25947 0.07506,-5.4073 0.801092,-0.8863 2.056574,-0.83317 2.732663,0.11563 0.449024,0.63015 0.466524,0.73924 0.130655,0.81449 -0.213296,0.0478 -0.593695,-0.19034 -0.845331,-0.52917 -0.429258,-0.57799 -0.497985,-0.59153 -1.112646,-0.21917 -0.368443,0.2232 -0.737607,0.7384 -0.843609,1.17732 -0.215445,0.8921 -0.08617,1.17907 0.325813,0.72327 0.155645,-0.1722 0.619366,-0.31309 1.030491,-0.31309 1.561025,0 2.322998,2.08582 1.291811,3.53619 -0.656201,0.92296 -2.06067,0.97431 -2.784907,0.10183 z m 2.084821,-0.46302 c 0.616831,-0.68244 0.609935,-1.63827 -0.01634,-2.26532 -0.451418,-0.45198 -0.550673,-0.46062 -1.13595,-0.0988 -0.788608,0.4875 -0.976943,1.66145 -0.383026,2.38753 0.528078,0.64558 0.936274,0.63936 1.535319,-0.0234 z m 148.271441,0.28398 c 0,-0.80925 -0.006,-0.81315 -1.31531,-0.81315 -0.99912,0 -1.31531,-0.0937 -1.31531,-0.3898 0,-0.60728 2.70515,-4.61725 3.12197,-4.62784 0.30706,-0.008 0.36951,0.35898 0.35872,2.10688 -0.0114,1.84453 0.0407,2.11636 0.40545,2.11666 0.23018,2e-4 0.41851,0.17895 0.41851,0.39723 0,0.21828 -0.19257,0.39687 -0.42793,0.39687 -0.30867,0 -0.42531,0.20076 -0.41851,0.72034 0.006,0.47966 -0.13041,0.75135 -0.40908,0.81315 -0.326,0.0723 -0.41851,-0.0869 -0.41851,-0.72034 z m 0,-2.97391 c 0,-0.75186 -0.0419,-1.31741 -0.0931,-1.25677 -0.0512,0.0606 -0.48096,0.67579 -0.95501,1.36701 l -0.86191,1.25677 h 0.95501 0.95501 z M 22.159971,92.717408 C 22.159392,79.729675 22.088153,63.953894 22.001662,57.660119 L 21.844406,46.21689 25.649714,46.20267 c 2.09292,-0.0078 8.917086,-0.07553 15.164814,-0.150467 l 11.359505,-0.136242 0.06693,-3.289117 0.06693,-3.289116 h 14.812854 14.812854 l 0.06693,3.373437 0.06693,3.373437 15.847305,0.06804 15.847304,0.06804 -0.058,22.553838 c -0.0319,12.404611 -0.0915,28.179541 -0.13231,35.0554 l -0.0743,12.50156 H 67.829238 22.161024 Z m 90.159849,6.614583 c 10e-5,-8.622109 0.0716,-23.802576 0.15885,-33.734373 l 0.15866,-18.057811 H 67.997047 23.356762 v 33.734373 33.73437 h 44.481432 44.481436 z m -78.500615,9.904119 c -0.375397,-0.1031 -1.686083,-1.30587 -3.052267,-2.80096 l -2.394353,-2.62029 0.06292,-8.889088 0.06292,-8.889092 10.547951,-0.06887 10.547951,-0.06887 0.153899,1.629037 c 0.08465,0.89597 0.152491,4.975087 0.15077,9.064704 l -0.0031,7.435669 -2.328558,2.63413 -2.328559,2.63414 -5.380818,0.0601 c -2.95945,0.0331 -5.67688,-0.0212 -6.038733,-0.12059 z m 12.799635,-3.69164 2.087555,-2.32034 v -2.79649 c 0,-1.538071 -0.071,-5.142098 -0.157788,-8.008951 l -0.157788,-5.212459 -9.288538,0.0335 -9.288537,0.0335 0.006,7.980682 0.006,7.980688 1.929622,2.3151 1.929622,2.3151 h 5.423129 5.423129 z m 13.402261,1.25365 c -1.290672,-1.47957 -2.428861,-2.93119 -2.52931,-3.22581 -0.100449,-0.29463 -0.154257,-4.360672 -0.119574,-9.035657 l 0.06306,-8.499973 10.576033,-0.06889 10.576034,-0.06889 0.06603,8.932435 0.06603,8.932435 -2.459935,2.80236 -2.459936,2.80235 -5.715878,0.0599 -5.715879,0.0599 z m 15.295438,-1.25365 2.087554,-2.32034 v -8.003964 -8.003962 l -9.326752,0.01722 -9.326752,0.01722 v 7.986737 7.986739 l 2.087555,2.32034 2.087554,2.32033 h 5.151643 5.151643 z m 13.143852,0.92675 -2.446989,-2.71649 v -8.925173 -8.925169 h 10.635907 10.635901 l 0.0659,9.010918 0.0659,9.010914 -2.41659,2.63075 -2.41659,2.63075 H 96.745649 90.90738 Z m 15.560659,-0.78923 2.08612,-2.18281 -0.003,-8.135938 -0.003,-8.135937 h -9.326751 -9.326752 v 8.02092 8.020925 l 1.972967,2.25833 1.972967,2.25834 5.270353,0.0395 5.270356,0.0395 z M 30.822603,74.188457 28.37237,71.468358 l 0.06303,-8.987713 0.06303,-8.987714 10.163769,-0.07351 c 5.590072,-0.04043 10.405904,-0.0084 10.701849,0.07119 l 0.538082,0.144695 v 8.796866 8.796867 l -2.57474,2.839759 -2.574741,2.839758 h -5.739907 -5.739908 z m 15.486724,-1.050214 2.144494,-2.447396 0.0067,-7.830693 0.0067,-7.830694 -2.907316,-0.172952 C 41.85378,54.636035 34.347382,54.636112 31.78671,54.85665 l -1.972966,0.169921 v 7.959196 7.959195 l 2.087554,2.320338 2.087554,2.320338 h 5.08799 5.08799 z m 13.332621,0.996248 -2.326244,-2.740706 V 62.377212 53.36064 H 67.957767 78.59983 v 9.187774 9.187774 l -2.451261,2.592346 -2.451262,2.592347 -5.864558,-0.02284 -5.864558,-0.02284 z m 15.74447,-1.005627 1.857787,-2.19219 -0.05785,-7.926234 c -0.03182,-4.359429 -0.09831,-7.970996 -0.147761,-8.025705 -0.04945,-0.05471 -4.238288,-0.162002 -9.308529,-0.238428 l -9.21862,-0.138957 v 8.026423 8.026422 l 1.972966,2.295709 1.972967,2.295708 5.535629,0.03472 5.535628,0.03472 z m 10.741934,3.464846 c -0.06611,-0.190637 -0.09212,-5.4663 -0.05779,-11.723696 l 0.06241,-11.377083 10.584766,-0.0689 10.584772,-0.0689 -0.0623,11.710566 -0.0623,11.710566 -10.464698,0.08203 c -8.459581,0.06631 -10.487731,0.01562 -10.584904,-0.264583 z M 106.09615,65.162 l 0.0157,-10.159055 -3.17373,-0.176162 c -1.74555,-0.09689 -5.971753,-0.138986 -9.391562,-0.09355 l -6.217834,0.08261 -0.07909,2.248958 c -0.0435,1.236927 -0.0042,5.850599 0.08726,10.252604 l 0.166345,8.003645 h 9.288613 9.288608 z M 80.7522,43.504911 80.752158,40.925224 H 67.120751 53.489345 l 2.49e-4,2.579687 2.49e-4,2.579687 h 13.6312 13.631199 z m 72.48608,37.636671 -0.0951,-35.189275 h 16.05087 16.05087 l 0.0671,-3.241146 0.0671,-3.241146 15.12608,-0.06812 15.12608,-0.06812 v 3.309264 3.309265 h 15.66416 15.66416 v 35.189581 35.189585 l -46.81312,-3.1e-4 -46.81312,-3e-4 z m 92.52564,0.0021 V 47.278724 l -45.54327,-0.0021 c -25.0488,-0.0012 -45.59106,0.08734 -45.64947,0.196687 -0.0584,0.109349 -0.049,15.349518 0.0208,33.867043 l 0.127,33.668226 h 45.52247 45.52246 z m -52.15069,27.625098 c -0.45126,-0.40145 -1.6545,-1.62948 -2.67387,-2.72895 l -1.85339,-1.99903 v -9.068182 -9.068186 h 8.2454 8.24539 l 2.40664,2.579687 2.40663,2.579688 0.0245,6.349999 0.0245,6.349994 -2.40976,2.77813 -2.40975,2.77812 -5.59289,0.0893 -5.5929,0.0893 z m 13.47357,-3.22427 2.08756,-2.32034 V 97.535303 91.84648 l -2.10087,-2.313552 -2.10088,-2.313552 -7.28566,0.07011 -7.28567,0.07011 -0.0634,7.928222 -0.0634,7.928222 2.09119,2.32438 2.09119,2.32438 h 5.27122 5.27122 z M 160.14912,97.546054 V 85.904388 h 10.64207 10.64206 l 0.005,8.40052 c 0.003,4.620287 0.0709,9.781472 0.15146,11.469292 l 0.14641,3.06877 -0.56996,0.16876 c -0.31348,0.0928 -5.17056,0.17039 -10.79351,0.17238 l -10.22356,0.004 z m 20.08839,0 V 87.227305 h -9.44632 -9.44633 V 97.546054 107.8648 h 9.44633 9.44632 z m 38.2636,0 V 85.904388 h 10.97012 10.97011 l 0.11421,11.443229 c 0.0628,6.293773 0.0703,11.532523 0.0165,11.641663 -0.0537,0.10914 -5.04165,0.19844 -11.08432,0.19844 h -10.98667 z m 20.80583,0 V 87.227305 h -9.80505 -9.80504 V 97.546054 107.8648 h 9.80504 9.80505 z M 162.60038,74.01513 160.14912,71.194616 V 62.277628 53.36064 l 8.31038,0.0047 8.31037,0.0047 2.44855,2.881101 2.44855,2.881101 -0.11806,6.305059 -0.11805,6.305059 -2.32601,2.583092 -2.326,2.583093 -5.8636,-0.03646 -5.8636,-0.03646 z m 15.71339,-0.876887 1.92089,-2.182813 0.001,-5.720469 0.001,-5.72047 -2.05522,-2.415467 -2.05523,-2.415468 h -7.3911 -7.3911 v 7.826774 7.826774 l 2.09254,2.486426 2.09254,2.486426 5.43147,0.0055 5.43147,0.0055 z m 13.19741,1.068789 -2.41566,-2.722435 -0.005,-9.061979 -0.005,-9.061978 h 8.21783 8.21783 l 2.40895,2.866031 2.40895,2.866032 0.0478,6.119429 0.0478,6.119429 -2.31355,2.764113 -2.31355,2.764113 -5.94064,0.03484 -5.94064,0.03484 z m 15.69021,-1.071566 1.97297,-2.168353 v -5.711787 -5.711787 l -2.23969,-2.429991 -2.23969,-2.429992 h -7.20664 -7.20663 v 7.998674 7.998675 l 2.14742,2.386221 2.14742,2.386221 5.32594,-0.07476 5.32593,-0.07476 z m 13.69128,1.140261 -2.39156,-2.647778 v -9.136297 -9.136297 l 11.01303,0.06879 11.01303,0.06879 -0.0177,9.128125 -0.0176,9.128124 -2.30742,2.563711 -2.30741,2.56371 -6.29641,0.02345 -6.29641,0.02345 z m 16.4413,-1.140394 1.97297,-2.16822 v -8.141778 -8.141779 h -7.97536 c -4.38645,0 -8.79872,0.077 -9.80505,0.171116 l -1.82968,0.171115 v 7.970663 7.970663 l 1.97296,2.159227 c 1.44397,1.580284 2.16533,2.181719 2.69041,2.243117 0.3946,0.04614 3.0312,0.05019 5.85912,0.009 l 5.14167,-0.0749 z M 214.23983,43.412699 c 0.0419,-1.396784 0.0224,-2.566985 -0.0434,-2.600446 -0.0658,-0.03346 -6.30751,-0.0515 -13.87055,-0.04008 l -13.75098,0.02076 -0.0684,2.579687 -0.0684,2.579688 h 13.8628 13.8628 z m -96.18066,58.366691 c 0,-0.78574 -0.0133,-0.79375 -1.31532,-0.79375 -1.0534,0 -1.31531,-0.0854 -1.31531,-0.42892 0,-0.47085 2.85233,-4.862749 3.15812,-4.862749 0.10447,0 0.18995,1.012031 0.18995,2.248958 0,2.072571 0.0375,2.248961 0.47829,2.248961 0.26572,0 0.4783,0.17639 0.4783,0.39687 0,0.22049 -0.21258,0.39688 -0.4783,0.39688 -0.372,0 -0.47829,0.17639 -0.47829,0.79375 0,0.52916 -0.11958,0.79375 -0.35872,0.79375 -0.23915,0 -0.35872,-0.26459 -0.35872,-0.79375 z m 0,-3.086808 c 0,-0.824618 -0.0336,-1.449696 -0.0746,-1.389063 -0.041,0.06063 -0.48066,0.735321 -0.97696,1.499306 l -0.90236,1.389065 h 0.97696 0.97696 z m 134.16173,3.086808 c 0,-0.78574 -0.0133,-0.79375 -1.31531,-0.79375 -1.7006,0 -1.69715,-0.24808 0.0398,-2.858356 1.9304,-2.901028 2.08121,-2.899972 2.01159,0.01408 -0.0457,1.912696 -0.0158,2.050526 0.4445,2.050526 0.27922,0 0.49349,0.17231 0.49349,0.39687 0,0.22759 -0.2156,0.39688 -0.50544,0.39688 -0.42557,0 -0.4888,0.12543 -0.40014,0.79375 0.0842,0.63479 0.0178,0.79375 -0.33158,0.79375 -0.32599,0 -0.43688,-0.20148 -0.43688,-0.79375 z m 0,-2.910419 c 0,-0.727605 -0.0437,-1.322917 -0.0971,-1.322917 -0.0534,0 -0.48371,0.595312 -0.95619,1.322917 l -0.85905,1.322919 h 0.95619 0.95619 z M 116.25469,67.792457 c -0.71412,-0.790071 -0.75446,-1.811127 -0.10016,-2.535017 0.43777,-0.484337 0.44982,-0.579564 0.11957,-0.944941 -0.92311,-1.021294 -0.0516,-2.485193 1.47956,-2.485193 1.43344,0 2.26308,1.626701 1.29658,2.542261 -0.42969,0.407043 -0.42588,0.440243 0.11958,1.043718 0.72211,0.798914 0.71453,1.562514 -0.0236,2.379172 -0.40528,0.448381 -0.85285,0.649432 -1.44576,0.649432 -0.5929,0 -1.04048,-0.201051 -1.44575,-0.649432 z m 2.08407,-0.210464 c 0.95469,-0.851037 0.47215,-2.315104 -0.76304,-2.315104 -1.12789,0 -1.53419,1.207352 -0.71229,2.116667 0.55211,0.61084 0.95231,0.664668 1.47533,0.198437 z m 0.18943,-3.618854 c 0.50005,-1.033726 -0.43856,-1.926522 -1.41658,-1.347432 -1.48236,0.877714 0.72321,2.780809 1.41658,1.347432 z m 131.82122,3.866385 c -0.66107,-0.778519 -0.66505,-1.872972 -0.009,-2.598302 0.45875,-0.507543 0.47088,-0.589387 0.11958,-0.806898 -0.53209,-0.32944 -0.49428,-1.617809 0.0639,-2.176655 0.69733,-0.698191 2.12649,-0.468668 2.73681,0.439533 0.48852,0.726952 0.48853,0.728235 0.0136,1.431974 l -0.47533,0.70437 0.57112,0.631861 c 1.07056,1.18443 0.098,2.986482 -1.61183,2.986482 -0.61943,0 -1.04584,-0.1854 -1.40839,-0.612365 z m 2.12636,-0.190694 c 0.55301,-0.327437 0.62646,-1.627503 0.11832,-2.094079 -0.61184,-0.561784 -1.6527,-0.230968 -1.91842,0.609727 -0.20522,0.649262 -0.16015,0.825699 0.32102,1.256771 0.64288,0.575941 0.83962,0.606212 1.47908,0.227581 z m 0.0863,-3.58094 c 0.4123,-0.456152 0.15947,-1.342425 -0.4577,-1.604445 -0.4795,-0.203573 -1.31835,0.38038 -1.31835,0.917753 0,1.03237 1.08458,1.451711 1.77605,0.686692 z"
       id="path1"
       sodipodi:nodetypes="ccccccccsscccccccccscccccccccccccccccccccccccsscccsscccccccccccccccccccssccccccccccccccccccccccccccccccccccccccccccccccccccssscccccccccccccscccccccccsscccccccccccsscccccccccccssscccccccccscccccccccccccccccccccccccccccccccccccccssscccccsssscccccscccccccccsssssssssssssssssssssssscsssssssssssssssssssssssscsssscssssscccsssccscccccccccsccccssscccccccssscccccscccccssccssccccccccccssscccccccccscccccccccccccccccccccccccccccccccccccccccccssccccccccccccsscccccccccccccccccccccccssscccccccccscccccsccccsscsccccccccccccccccccccccccccccccccccsccccccsccccccccccccccccccccccccccccccccccccsccccccccccccccccscsccccccccccccccccccccccccccccccccccccccccccccccccccccccccccccccccccccccccccccccccccccccccsscccssscccssccccccsssssssssssssscccssssssssssssssscccssssssssssssssssssccsssscssccsssssssss" /></g><g
     inkscape:groupmode="layer"
     id="layer2"
     inkscape:label="pôvodný dokument" /></svg>
