<?xml version="1.0" encoding="UTF-8" standalone="no"?>
<!-- Created with Inkscape (http://www.inkscape.org/) -->

<svg
   width="210mm"
   height="297mm"
   viewBox="0 0 210 297"
   version="1.1"
   id="svg1"
   inkscape:version="1.4.2 (ebf0e940d0, 2025-05-08)"
   sodipodi:docname="molex-template.svg"
   xmlns:inkscape="http://www.inkscape.org/namespaces/inkscape"
   xmlns:sodipodi="http://sodipodi.sourceforge.net/DTD/sodipodi-0.dtd"
   xmlns="http://www.w3.org/2000/svg"
   xmlns:svg="http://www.w3.org/2000/svg">
  <sodipodi:namedview
     id="namedview1"
     pagecolor="#ffffff"
     bordercolor="#111111"
     borderopacity="1"
     inkscape:showpageshadow="0"
     inkscape:pageopacity="0"
     inkscape:pagecheckerboard="1"
     inkscape:deskcolor="#d1d1d1"
     inkscape:document-units="mm"
     inkscape:zoom="0.55"
     inkscape:cx="-283.63636"
     inkscape:cy="37.272727"
     inkscape:window-width="1920"
     inkscape:window-height="1008"
     inkscape:window-x="0"
     inkscape:window-y="0"
     inkscape:window-maximized="1"
     inkscape:current-layer="layer1" />
  <defs
     id="defs1" />
  <g
     inkscape:label="Layer 1"
     inkscape:groupmode="layer"
     id="layer1">
    <path
       id="path1"
       style="fill:#000000;stroke-width:0.588254"
       d="m -131.1747,119.42612 -0.0399,1.90291 -0.0402,1.90261 -6.79457,0.0789 c -3.73701,0.0434 -7.81859,0.0825 -9.07045,0.087 l -2.27619,0.008 0.094,6.62026 c 0.0517,3.64114 0.0945,12.76792 0.0949,20.28172 l 6e-4,13.66147 h 27.31582 27.315838 l 0.04446,-7.23254 c 0.02443,-3.97789 0.06007,-13.10438 0.07913,-20.28083 l 0.03466,-13.04799 -9.478768,-0.0395 -9.47877,-0.0392 -0.0402,-1.95164 -0.0399,-1.95163 h -8.86026 z m 0.70691,0.91842 h 8.15335 8.15367 v 1.49243 1.49243 h -8.15335 -8.15336 l -3.1e-4,-1.49243 z m -84.30063,0.66071 c -5.4e-4,0.006 -0.001,0.0124 -0.002,0.0185 0.002,-0.006 0.003,-0.0124 0.005,-0.0185 z m 66.27718,3.16603 h 26.70103 26.701033 l -0.09489,10.447 c -0.05223,5.74585 -0.09483,14.52821 -0.09489,19.51638 l -3.08e-4,9.06937 h -26.606145 -26.60583 v -19.51637 z m 50.21126,3.36424 -6.33123,0.0398 -6.33123,0.0401 -0.0374,6.582 c -0.0205,3.62009 -0.005,6.67201 0.0347,6.7823 0.0581,0.1621 1.27122,0.19143 6.33123,0.15307 l 6.25921,-0.0472 0.0374,-6.77513 z m -29.89926,0.003 v 5.21633 5.21633 l 1.39156,1.5857 1.39124,1.58541 3.50794,0.0132 3.50794,0.0135 1.46605,-1.49991 1.46635,-1.4996 v -5.31563 -5.31528 h -6.36554 z m -11.15747,0.0338 -6.07932,0.0428 -0.0377,5.19959 -0.0377,5.19958 1.46574,1.57375 1.46543,1.57375 h 3.43344 3.43315 l 1.54022,-1.64311 1.53992,-1.64281 v -5.0893 -5.08927 l -0.32177,-0.0837 c -0.17701,-0.046 -3.05776,-0.0647 -6.4014,-0.0413 z m 11.87272,0.68732 5.51397,0.0804 c 3.03272,0.0442 5.53816,0.10647 5.56777,0.13812 0.0296,0.0316 0.0694,2.12085 0.0884,4.64292 l 0.0347,4.58551 -1.1112,1.2685 -1.1112,1.26821 -3.31104,-0.0203 -3.31105,-0.02 -1.18013,-1.328 -1.18013,-1.3283 v -4.64351 z m 20.95585,0.0729 c 2.04551,-0.0263 4.57344,-0.002 5.61752,0.0541 l 1.89848,0.10195 -0.01,5.87733 -0.009,5.87734 h -5.55606 -5.55571 l -0.0995,-4.63036 c -0.0546,-2.54669 -0.0785,-5.21584 -0.0522,-5.93144 l 0.0473,-1.3011 z m -28.70306,0.0712 h 3.1e-4 l 1.73898,0.10015 -0.004,4.53021 -0.004,4.5305 -1.28244,1.41589 -1.28275,1.4159 h -3.04335 -3.04337 l -1.24875,-1.34235 -1.24844,-1.34265 v -4.60464 -4.60465 l 1.18013,-0.0981 c 1.53164,-0.12759 6.02129,-0.12785 8.23805,-3e-4 z m 41.99855,7.01011 c 0.0056,0.0171 0.01148,0.0341 0.01792,0.0511 2.8e-4,-0.0135 5.95e-4,-0.027 0.0021,-0.0407 -0.0063,-0.003 -0.01295,-0.007 -0.01953,-0.0105 z m 1.695394,0.7226 c -0.08041,0.04 -0.16741,0.0717 -0.256548,0.0975 0.09206,-0.0206 0.178185,-0.0524 0.259643,-0.0957 l -3.09e-4,-3e-4 h -3.15e-4 c -5.95e-4,-3.7e-4 -0.0021,-8.1e-4 -0.0021,-0.001 z m -41.280514,10.22636 -6.30897,0.0398 -6.30929,0.0401 -0.0374,5.14248 -0.0377,5.14278 1.43205,1.51576 c 0.81716,0.86495 1.60129,1.56073 1.82583,1.62038 0.21644,0.0575 1.84164,0.0891 3.6118,0.07 l 3.21862,-0.035 1.39279,-1.52382 1.3928,-1.52382 0.002,-4.30179 c 0.001,-2.36597 -0.0396,-4.72579 -0.0902,-5.24413 z m 17.34188,0 -6.32567,0.0398 -6.32597,0.0401 -0.0377,4.91737 c -0.0208,2.70462 0.0113,5.05693 0.0714,5.22738 0.0601,0.17045 0.74071,1.01046 1.51272,1.86644 l 1.40392,1.5561 3.41861,-0.0346 3.41892,-0.0347 1.47161,-1.62098 1.4713,-1.62128 -0.0396,-5.1679 z m 4.44204,0.004 v 5.16341 5.16341 l 1.46357,1.57166 1.46358,1.57165 h 3.49217 3.49187 l 1.44565,-1.52202 1.44533,-1.52203 -0.0392,-5.21304 -0.0396,-5.21304 h -6.36183 z m -22.5038,0.75309 0.0946,3.01565 c 0.0519,1.65856 0.0943,3.74354 0.0943,4.63335 v 1.6177 l -1.24844,1.34265 -1.24876,1.34234 h -3.24396 -3.24367 l -1.15416,-1.33935 -1.15417,-1.33937 -0.004,-4.6172 -0.003,-4.6169 5.55571,-0.0194 z m 17.35424,0.006 v 4.63066 4.63035 l -1.24875,1.34266 -1.24875,1.34234 h -3.08139 -3.08138 l -1.24844,-1.34234 -1.24876,-1.34266 v -4.62048 -4.6205 l 5.57858,-0.01 z m 6.0073,0.007 h 5.57859 5.57889 l 0.002,4.7069 0.002,4.70689 -1.24752,1.26282 -1.24844,1.26282 -3.15218,-0.023 -3.15248,-0.0228 -1.18013,-1.30647 -1.18013,-1.30648 v -4.64052 -2.92118 z m 16.746566,7.66186 c -0.007,0.0212 -0.01022,0.0373 -0.01022,0.0496 0,0.083 0.02731,0.13999 0.105095,0.17818 -0.03725,-0.0738 -0.06967,-0.14902 -0.09489,-0.22781 z m 73.943412,85.44091 c -0.0573,0.0393 -0.11423,0.0782 -0.17064,0.1169 h 0.17064 z" />
    <path
       id="path1-9"
       style="fill:#000000"
       d="m -182.21133,-42.674208 c 0.2937,0.462022 0.56547,0.918636 0.81701,1.370976 l 0.004,-1.367358 z M 4.4315446,-9.2917485 c -0.13444,0.06913 -0.27989,0.123978 -0.42891,0.168465 0.1539,-0.03567 0.2979,-0.09056 0.43408,-0.165365 l -5.2e-4,-5.16e-4 h -5.1e-4 c -0.001,-6.42e-4 -0.003,-0.0014 -0.004,-0.0021 z m -40.0218416,17.67644 -10.57559,0.06873 -10.57609,0.06925 -0.0631,8.4997395 c -0.0347,4.674974 0.0189,8.740994 0.11937,9.035624 0.10045,0.29462 1.23838,1.74659 2.52905,3.22616 l 2.34714,2.689758 5.71541,-0.05994 5.71593,-0.05994 2.46032,-2.801896 2.4598,-2.802413 -0.0661,-8.932788 z m -30.49272,0.866614 c -0.0213,0.01268 -0.0423,0.02588 -0.0625,0.03979 0.023,-0.0079 0.0457,-0.01595 0.0682,-0.02481 -0.002,-0.0049 -0.004,-0.01007 -0.006,-0.01499 z m 0.008,0.02067 c -0.004,0.003 -0.007,0.0053 -0.009,0.0067 l -5.2e-4,5.16e-4 -5.2e-4,5.17e-4 h -5.1e-4 v 5.17e-4 h 5.1e-4 5.2e-4 c 0.002,-3.9e-4 0.006,-0.0017 0.0109,-0.0041 -7.3e-4,-0.0013 -9.2e-4,-0.0028 -10e-4,-0.0041 z m 29.30157,0.430464 v 8.0041625 8.003646 l -2.08773,2.320788 -2.08772,2.320272 h -5.15163 -5.15162 l -2.08721,-2.320272 -2.08773,-2.320788 V 17.723655 9.7370625 l 9.32656,-0.01705 z M 1.2676446,22.955894 c -0.0112,0.0363 -0.0171,0.06623 -0.0171,0.08733 0,0.14348 0.0457,0.241982 0.1757,0.307992 -0.0623,-0.12748 -0.11649,-0.25935 -0.15865,-0.395325 z M -13.483905,38.788002 c -0.14715,0.0082 -0.29441,0.01806 -0.441322,0.02946 h 1.838132 c -0.4644,-0.03753 -0.93306,-0.04293 -1.39681,-0.02946 z"
       sodipodi:nodetypes="ccccccccccccccsscccccccccccccccccccccccccccccccccccccsccccccc" />
    <path
       id="path1-6"
       style="fill:#000000;stroke-width:1.20499"
       d="m -170.60507,-121.40408 -0.0849,3.78791 -0.0839,3.78793 -14.32193,0.15738 c -7.87663,0.0863 -16.47908,0.16387 -19.11766,0.17284 l -4.79795,0.0165 0.19813,13.17952 c 0.10898,7.248724 0.19959,25.418617 0.20045,40.37697 l 0.001,27.197462 h 57.57413 57.575247 l 0.09362,-14.398596 c 0.05147,-7.9191 0.126706,-26.088166 0.166714,-40.374911 l 0.07287,-25.976325 -19.979241,-0.0782 -19.97816,-0.0782 -0.0849,-3.88462 -0.0839,-3.88564 h -18.67546 z m 1.49003,1.82812 h 17.18434 17.18653 v 2.97107 2.97107 h -17.18544 -17.18543 v -2.97107 z m -177.68375,1.31579 c -10e-4,0.0123 -0.003,0.0248 -0.004,0.037 0.004,-0.0122 0.007,-0.0248 0.0105,-0.037 z m 139.69454,6.30221 h 56.2791 56.277997 l -0.199382,20.79855 c -0.110031,11.438735 -0.200236,28.921984 -0.200446,38.852338 l -0.0011,18.054826 h -56.078559 -56.07761 v -38.852338 z m 116.513087,22.382848 c 0.01313,0.03406 0.02363,0.06796 0.03703,0.101851 5.91e-4,-0.02684 0.0026,-0.05407 0.0039,-0.08127 -0.01313,-0.0065 -0.02757,-0.01334 -0.04136,-0.02056 z m 3.572587,1.438212 c -0.169458,0.07961 -0.352388,0.143217 -0.540256,0.19444 0.193711,-0.04101 0.374277,-0.105406 0.545692,-0.191355 l -0.0011,-0.001 h -0.0011 l -0.0011,-10e-4 h -0.0011 z m -3.987581,37.142532 c -0.0147,0.04226 -0.02166,0.07424 -0.02166,0.09876 0,0.165255 0.05712,0.278897 0.221099,0.354923 -0.07865,-0.146999 -0.146283,-0.296849 -0.199395,-0.453685 z m -15.608253,8.722899 c -0.065,0.058 -0.1187,0.143436 -0.16568,0.227357 0.0452,-0.05399 0.0884,-0.11857 0.16568,-0.227357 z m -0.11765,0.829185 c -0.14354,0.01194 -0.28674,0.02283 -0.43022,0.03497 -0.0972,0.151359 -0.1956,0.301739 -0.29517,0.45163 h 0.23634 z M 64.846734,119.09959 c -0.120772,0.0782 -0.240535,0.15648 -0.359432,0.23354 h 0.359432 z" />
    <path
       id="path1-8"
       style="fill:#000000;stroke-width:0.796415"
       d="m -197.9365,34.282145 c -7.4e-4,0.0082 -0.001,0.01655 -0.003,0.02462 0.003,-0.0081 0.004,-0.01648 0.007,-0.02462 z m 161.306454,8.644042 -8.767348,0.05267 -8.767347,0.05267 -0.05153,8.712443 c -0.02839,4.791818 -0.0069,8.83186 0.04794,8.977847 0.08045,0.214576 1.760541,0.25325 8.767347,0.202471 l 8.667167,-0.06293 0.05223,-8.967586 z m -41.403037,0.986366 v 0.472662 c 0.27283,-0.368893 0.10746,-0.29436 0,-0.472662 z m 30.008776,0.06908 c 2.832503,-0.0348 6.333344,-0.003 7.779125,0.07113 l 2.62906,0.135438 -0.01432,7.779431 -0.01288,7.779433 h -7.69397 -7.693254 l -0.137394,-6.128876 c -0.07561,-3.37099 -0.108689,-6.904035 -0.07227,-7.851255 l 0.06512,-1.722379 z m -52.787273,2.897536 c -0.0374,0.0085 -0.0751,0.01698 -0.11234,0.026 -1e-4,0.004 -6.2e-4,0.0083 -7.2e-4,0.01231 0.0494,-0.0077 0.082,-0.01378 0.11307,-0.02531 z m 47.216444,27.845345 c -0.0042,0.0073 -0.03636,0.07871 -0.04938,0.105338 -0.01745,0.03585 -0.02654,0.0535 -0.03292,0.06703 0.02908,-0.04317 0.05442,-0.09366 0.08087,-0.165535 5.95e-4,-0.0016 0.0013,-0.0037 0.0014,-0.0048 l 7.15e-4,-6.84e-4 v -6.84e-4 h 7.16e-4 v -6.83e-4 z m -0.19607,0.265402 v 6.84e-4 c -0.0014,0.0046 -0.0028,0.02638 -0.0014,0.04036 0.0028,-0.0033 0.0051,-0.0064 0.0093,-0.0095 -0.0014,-0.0091 -0.0022,-0.0188 -0.005,-0.02872 l -7.16e-4,-6.83e-4 v -6.85e-4 -6.84e-4 l -7.15e-4,-6.84e-4 z M 72.506686,192.10276 c -0.07935,0.052 -0.158031,0.10404 -0.236144,0.15527 h 0.236144 z" />
    <path
       id="path1-1"
       style="fill:#000000"
       d="m -152.37618,-83.768856 c -0.008,0.0084 -0.0152,0.01635 -0.0222,0.02402 0.0436,-0.0047 0.0789,-0.0095 0.0884,-0.01392 l 5.2e-4,-5.11e-4 5.1e-4,-5.11e-4 5.2e-4,-5.11e-4 5.2e-4,7e-6 v -5.16e-4 -5.17e-4 -5.17e-4 -5.17e-4 l -5.2e-4,-7e-6 c -0.005,-0.0029 -0.0253,-0.0053 -0.0677,-0.0065 z m 87.517653,15.628823 c -0.13444,0.0675 -0.27989,0.120594 -0.42891,0.16328 0.1539,-0.03381 0.2979,-0.08696 0.43408,-0.160116 l -5.2e-4,-5.23e-4 -5.1e-4,-7e-6 c -10e-4,-6.54e-4 -0.003,-0.0014 -0.004,-0.0021 z m -277.422853,33.006895 v 0.371037 l 0.87281,0.01055 c -0.29819,-0.114099 -0.59208,-0.237252 -0.87281,-0.38159 z m 201.30244,70.009576 v 3.175 3.175 l -10.28361,-0.124334 -10.2831,-0.124329 v 34.925 34.924995 l 34.19791,0.41347 34.198433,0.41348 v -34.924996 -34.925 l -11.120763,-0.167556 c -6.11619,-0.09205 -11.25454,-0.184273 -11.41895,-0.204161 -0.21623,-0.02651 -0.31768,-0.897011 -0.36638,-3.14636 l -0.0672,-3.109662 -12.42816,-0.150263 z m 23.67555,1.604 v 2.44998 l -5.1e-4,2.449974 -11.11974,-0.04504 c -9.45947,-0.03837 -11.13915,-0.102079 -11.25047,-0.424385 -0.072,-0.20838 -0.0988,-1.320024 -0.06,-2.470855 l 0.0703,-2.09256 11.1802,0.06647 z m 172.811679,7.121118 c 0.0307,0.01947 0.0614,0.03954 0.092,0.06001 v -0.0584 z M -127.94563,42.624768 c 1.44684,0.02549 9.59905,0.145458 18.11569,0.267128 l 15.484843,0.221321 v 33.60209 33.601553 l -33.002643,-0.39902 -33.00211,-0.39901 V 75.916753 42.314673 l 14.88694,0.132491 c 8.18782,0.073 16.07044,0.152201 17.51728,0.177694 z M 13.618853,51.46151 c 0.0423,0.04291 0.072,0.07627 0.0946,0.101903 l 0.0641,7.75e-4 c -0.0565,-0.03628 -0.10926,-0.07062 -0.15865,-0.102678 z m -101.87595,9.073574 c -0.0174,0.06719 -0.0348,0.134229 -0.0522,0.201419 0.0293,0.0064 0.0587,0.01401 0.0879,0.02276 -0.006,-0.03427 -0.0119,-0.06874 -0.0176,-0.103053 -0.006,-0.04047 -0.0123,-0.08065 -0.0181,-0.121139 z m -29.537733,10.074273 c -0.003,0.184103 0.007,0.342414 0.0486,0.428987 0.002,0.005 0.005,0.0081 0.007,0.01038 l 5.2e-4,5.16e-4 5.2e-4,5.26e-4 5.1e-4,7e-6 5.2e-4,5.26e-4 5.2e-4,6e-6 c 1.8e-4,2.2e-5 10e-4,2.2e-5 0.002,2.4e-5 l 5.1e-4,7e-6 5.2e-4,6e-6 5.2e-4,6e-6 v -5.2e-4 l 5.1e-4,-5.14e-4 5.2e-4,-5.03e-4 c 0.0158,-0.01891 0.013,-0.166563 -0.002,-0.222235 -0.0222,-0.08147 -0.0418,-0.153285 -0.0599,-0.217254 z m -15.77061,33.350433 c -0.13599,0.11219 -0.28033,0.2197 -0.43409,0.32186 l 0.43409,0.005 z m 135.5968928,8.84417 v 0.002 l 0.002,2e-5 c -1.6e-4,-2.4e-4 -10e-4,-0.001 -0.002,-0.002 z"
       inkscape:transform-center-x="18.761364"
       inkscape:transform-center-y="-63.5" />
    <path
       id="path1-1-0"
       style="fill:#000000"
       d="m 294.41562,51.593767 c -0.008,0.0085 -0.0152,0.01653 -0.0222,0.02429 0.0436,-0.0052 0.0789,-0.01041 0.0884,-0.01499 l 5.1e-4,-5.17e-4 5.2e-4,-5.16e-4 5.2e-4,-5.17e-4 h 5.1e-4 v -5.17e-4 -5.17e-4 -5.16e-4 -5.17e-4 h -5.1e-4 c -0.005,-0.0028 -0.0253,-0.005 -0.0677,-0.0057 z m 87.51765,14.570687 c -0.13443,0.06913 -0.27989,0.123978 -0.42891,0.168465 0.15391,-0.03567 0.29791,-0.09056 0.43408,-0.165364 l -5.1e-4,-5.17e-4 h -5.2e-4 c -10e-4,-6.42e-4 -0.003,-0.0014 -0.004,-0.0021 z M 104.51042,102.52554 v 0.37104 h 0.87281 c -0.29819,-0.11049 -0.59208,-0.23009 -0.87281,-0.37104 z m 201.30244,67.57572 v 3.175 3.175 h -10.28362 -10.28309 v 34.925 34.925 h 34.19792 34.19842 v -34.925 -34.925 l -11.12077,-0.0331 c -6.11619,-0.0181 -11.25452,-0.048 -11.41894,-0.0661 -0.21623,-0.0239 -0.31768,-0.89317 -0.36638,-3.14193 l -0.0672,-3.10885 h -12.42818 z m 23.67556,1.31775 v 2.44998 l -5.3e-4,2.44998 -11.11973,0.0894 c -9.45947,0.076 -11.13915,0.0326 -11.25047,-0.28836 -0.072,-0.20751 -0.0987,-1.31883 -0.0599,-2.47013 l 0.0703,-2.09341 11.1802,-0.0687 z m 172.81167,5.03173 c 0.0307,0.0191 0.0614,0.0388 0.092,0.0589 v -0.0584 z m -183.45392,1.24127 c 1.44684,0.008 9.59905,0.0294 18.11569,0.0481 l 15.48484,0.0341 v 33.60208 33.60157 h -33.00263 -33.00212 v -33.60209 -33.60208 l 14.88694,-0.0475 c 8.18781,-0.026 16.07045,-0.0421 17.51729,-0.0341 z m 17.45785,5.90248 -11.12026,5.2e-4 v 11.50937 11.50938 h 11.12026 11.12025 v -11.50989 -11.50938 z m -44.6009,5.2e-4 v 8.78448 8.78499 l 2.45101,2.8298 2.45153,2.8298 5.85908,-0.14624 5.85907,-0.14625 2.45153,-2.51302 2.45101,-2.51354 v -8.95501 -8.95501 h -10.76161 z m 168.70753,1.22215 c 0.0423,0.0424 0.072,0.0754 0.0946,0.10077 h 0.0641 c -0.0565,-0.0356 -0.10926,-0.0693 -0.15865,-0.10077 z m -148.38009,0.0946 v 7.89255 7.89254 l -2.12132,2.29701 -2.12183,2.29702 -5.35161,-0.0434 -5.35161,-0.0429 -2.09445,-2.27221 -2.09393,-2.2717 -0.0124,-7.8052 -0.0124,-7.80521 9.57978,-0.0692 z m 14.349,0.006 h 9.92446 9.92497 v 10.18645 10.18646 h -9.92497 -9.92446 V 195.1037 Z m 32.15514,10.20454 c -0.0174,0.0674 -0.0348,0.13466 -0.0522,0.20206 0.0293,0.006 0.0587,0.0133 0.0879,0.0217 -0.006,-0.0342 -0.0119,-0.0686 -0.0176,-0.10284 -0.006,-0.0404 -0.0123,-0.0805 -0.0181,-0.12092 z m -56.06996,20.75119 -10.76162,5.2e-4 v 11.77395 11.77396 h 10.76162 10.76161 v -11.77447 -11.77396 z m 34.24494,0.0553 c -5.89238,-0.043 -10.89631,-6.3e-4 -11.11974,0.0946 -0.37094,0.15751 -0.40618,0.93864 -0.40618,8.99842 v 8.8253 l 2.57092,2.78639 2.57089,2.78536 6.10247,0.002 6.10247,0.002 2.44688,-2.71663 2.44688,-2.71663 -5.1e-4,-8.99118 -5.3e-4,-8.99119 z m -43.81077,1.53273 h 9.56583 9.56582 v 10.18645 10.18646 l -3.88607,0.01 c -2.13738,0.006 -6.44196,0.0764 -9.56582,0.1571 l -5.67976,0.14676 v -10.34356 z m 33.48065,0 h 9.92447 9.92496 v 7.9685 7.96902 l -2.05517,2.21744 -2.05466,2.21795 -5.05963,0.0341 c -2.78292,0.0187 -5.35314,0.0532 -5.71128,0.0775 -0.52597,0.0357 -1.06635,-0.41651 -2.81017,-2.35386 l -2.15852,-2.39882 v -7.86619 z m 122.4437,28.83699 v 0.003 h 0.002 c -4.5e-4,-6.5e-4 -9.9e-4,-0.002 -0.002,-0.003 z" />
  </g>
</svg>
